<?xml version="1.0" standalone="no"?>
<!DOCTYPE svg PUBLIC "-//W3C//DTD SVG 20010904//EN"
 "http://www.w3.org/TR/2001/REC-SVG-20010904/DTD/svg10.dtd">
<svg version="1.0" xmlns="http://www.w3.org/2000/svg"
 width="4096.000000pt" height="4096.000000pt" viewBox="0 0 4096.000000 4096.000000"
 preserveAspectRatio="xMidYMid meet">

<g transform="translate(0.000000,4096.000000) scale(0.100000,-0.100000)"
fill="#000000" stroke="none">
<path d="M6990 39244 c-14 -1 -113 -8 -220 -14 -375 -22 -853 -112 -1200 -227
-58 -20 -127 -41 -155 -48 -27 -8 -113 -39 -189 -69 -77 -31 -143 -56 -148
-56 -12 0 -384 -179 -493 -238 -262 -141 -651 -394 -774 -504 -30 -26 -61 -48
-67 -48 -7 0 -19 -8 -26 -17 -7 -10 -67 -63 -133 -118 -201 -168 -558 -534
-687 -705 -14 -19 -40 -51 -58 -70 -18 -19 -44 -53 -58 -75 -14 -22 -42 -60
-62 -85 -37 -45 -177 -251 -220 -325 -13 -22 -27 -42 -31 -45 -6 -5 -26 -39
-153 -265 -95 -168 -283 -581 -320 -700 -8 -27 -36 -106 -61 -175 -25 -69 -60
-177 -76 -240 -65 -247 -107 -418 -118 -480 -22 -130 -60 -409 -78 -570 -17
-158 -18 -737 -18 -13725 0 -12929 1 -13567 18 -13715 50 -440 64 -525 134
-815 60 -250 226 -762 263 -810 4 -5 15 -32 25 -60 24 -66 182 -403 205 -435
10 -14 37 -61 60 -105 109 -206 361 -587 469 -711 20 -22 88 -103 151 -180
191 -231 487 -520 755 -734 44 -36 85 -70 90 -76 15 -17 185 -138 300 -213 55
-36 109 -73 119 -83 11 -10 23 -18 27 -18 4 0 47 -24 96 -54 48 -29 117 -68
153 -86 36 -18 72 -38 81 -46 14 -13 407 -200 460 -219 15 -6 91 -35 170 -67
151 -59 499 -174 559 -184 19 -3 98 -21 175 -39 339 -81 558 -112 970 -135
124 -8 4384 -10 13675 -8 12662 4 13503 5 13630 21 74 9 182 21 240 27 111 9
338 52 530 100 63 15 133 31 155 35 22 3 120 33 218 66 98 32 183 59 189 59
14 0 318 121 423 168 109 49 486 241 505 257 13 11 80 51 179 107 113 64 519
360 629 457 147 131 363 335 441 417 47 49 113 119 148 155 35 36 63 70 63 75
0 6 16 26 36 45 87 82 403 525 526 736 32 54 64 109 72 123 34 58 154 289 173
335 12 28 42 94 67 147 25 53 46 101 46 106 0 6 20 58 45 117 77 184 185 538
239 785 67 306 92 460 118 740 10 108 13 2870 16 13595 3 13437 3 13662 -28
13915 -6 41 -14 125 -19 185 -10 115 -52 339 -101 535 -15 63 -31 133 -35 155
-3 22 -35 128 -71 235 -35 107 -69 211 -75 230 -15 47 -114 291 -146 360 -91
197 -156 329 -191 384 -13 21 -33 59 -43 84 -11 26 -24 49 -28 52 -4 3 -40 60
-80 127 -40 68 -78 129 -85 135 -16 17 -76 105 -76 112 0 7 -184 261 -226 311
-214 256 -426 483 -599 638 -49 45 -98 92 -108 104 -10 13 -24 23 -30 23 -7 0
-32 19 -56 43 -80 76 -384 304 -477 357 -24 14 -56 35 -71 48 -16 13 -48 35
-73 49 -25 15 -79 46 -120 71 -113 68 -379 212 -430 232 -25 10 -93 41 -152
69 -59 28 -110 51 -115 51 -4 0 -82 29 -173 64 -219 85 -508 173 -685 210 -44
9 -154 32 -245 50 -170 35 -315 56 -550 78 -107 10 -2895 13 -13660 14 -7439
0 -13536 0 -13550 -2z m18865 -10276 c1533 -2 1999 -8 2230 -32 577 -60 1057
-141 1463 -246 854 -222 1575 -578 2147 -1059 118 -100 359 -340 466 -466 519
-611 832 -1311 988 -2210 75 -434 76 -446 76 -1130 -1 -588 -2 -628 -23 -780
-91 -649 -201 -1070 -393 -1514 -170 -392 -444 -820 -704 -1099 l-77 -83 59
-62 c224 -235 455 -571 623 -907 251 -500 396 -1013 492 -1740 22 -166 23
-205 23 -770 l0 -595 -28 -210 c-61 -451 -131 -770 -241 -1099 -189 -563 -461
-1046 -821 -1456 -112 -127 -348 -359 -465 -456 -567 -473 -1301 -829 -2160
-1048 -506 -129 -1225 -235 -1745 -257 -308 -13 -19395 -30 -19470 -18 -175
30 -339 169 -403 342 l-27 72 0 1245 c0 1186 1 1248 19 1300 63 189 226 336
399 360 36 5 3867 12 9037 15 4936 3 9214 9 9505 14 579 10 573 9 838 80 620
166 924 535 1038 1262 20 126 23 182 23 449 0 269 -3 322 -23 449 -64 405
-190 702 -388 912 -199 211 -475 336 -913 414 l-145 26 -9100 6 c-5005 2
-9282 8 -9505 11 l-405 7 -81 39 c-97 45 -196 139 -243 228 -64 123 -62 76
-59 1423 l3 1220 22 58 c33 86 87 170 143 220 57 51 173 111 246 126 36 7
2842 12 9150 16 5005 4 9288 10 9519 15 399 8 426 9 548 35 443 92 716 244
913 512 149 200 241 451 295 803 20 126 23 184 23 440 0 256 -3 314 -23 440
-54 353 -146 603 -297 807 -114 155 -250 263 -449 359 -148 71 -239 101 -445
145 l-145 31 -480 8 c-264 5 -2822 10 -5685 11 -2863 1 -6942 5 -9065 8
l-3860 7 -59 22 c-163 61 -266 164 -329 329 l-22 58 -3 1225 c-3 1377 -7 1300
71 1439 69 121 186 208 333 246 52 13 952 14 8149 10 4450 -3 8698 -6 9440 -7z"/>
</g>
</svg>
